# xmcd
#
# Track frame offsets:
#        150
#        28150
#        54945
#        65668
#        87964
#        125387
#        145140
#        180212
#        208137
#        231812
#        254062
#        273287
#        292565
#        310442
#
# Disc length: 4394 seconds
#
# Revision: 9
# Processed by: cddbd v1.5.2PL0 Copyright (c) Steve Scherf et al.
# Submitted via: ExactAudioCopy v1.0b3
#
DISCID=c811280e
DTITLE=Wolfgang Amadeus Mozart / Eine kleine Nachtmusik
DYEAR=1976
DGENRE=Classical
TTITLE0=Mozart‧Serenade No.13 in G major, K525“Eine kleine Nachtmusik”
TTITLE0=：I. Allegro
TTITLE1=Mozart‧Serenade No.13 in G major, K525“Eine kleine Nachtmusik”
TTITLE1=：II. Romance：Andante
TTITLE2=Mozart‧Serenade No.13 in G major, K525“Eine kleine Nachtmusik”
TTITLE2=：III. Menuetto：Allegretto
TTITLE3=Mozart‧Serenade No.13 in G major, K525“Eine kleine Nachtmusik”
TTITLE3=：IV. Rondo：Allegro
TTITLE4=Mozart‧Serenade No.9 in D major, K320“Posthorn Serenade”：I. Ad
TTITLE4=agio maestoso–Allegro con spirito
TTITLE5=Mozart‧Serenade No.9 in D major, K320“Posthorn Serenade”：II. M
TTITLE5=enuetto：Allegretto
TTITLE6=Mozart‧Serenade No.9 in D major, K320“Posthorn Serenade”：III.
TTITLE6=Concertante：Andante grazioso
TTITLE7=Mozart‧Serenade No.9 in D major, K320“Posthorn Serenade”：IV. R
TTITLE7=ondeau：Allegro ma non troppo
TTITLE8=Mozart‧Serenade No.9 in D major, K320“Posthorn Serenade”：V. An
TTITLE8=dantino
TTITLE9=Mozart‧Serenade No.9 in D major, K320“Posthorn Serenade”：VI. M
TTITLE9=enuetto–Trio I & II
TTITLE10=Mozart‧Serenade No.9 in D major, K320“Posthorn Serenade”：VII.
TTITLE10= Finale：Presto
TTITLE11=Mozart‧Serenata notturna in D major, K239：I. Marcia：Maestoso
TTITLE12=Mozart‧Serenata notturna in D major, K239：II. Menuetto
TTITLE13=Mozart‧Serenata notturna in D major, K239：III. Rondeau：Allegr
TTITLE13=etto
EXTD=Kleine Nachtmusik/Posthorn-Serenade/Serenata notturna YEAR: 1971
EXTT0=
EXTT1=
EXTT2=
EXTT3=
EXTT4=
EXTT5=
EXTT6=
EXTT7=
EXTT8=
EXTT9=
EXTT10=
EXTT11=
EXTT12=
EXTT13=
PLAYORDER=
.
